<svg width="24" height="24" viewBox="0 0 24 24" fill="none" xmlns="http://www.w3.org/2000/svg">
<g clip-path="url(#clip0_4024_33352)">
<path d="M21.4347 0.0586375H7.93472C7.59563 0.0566603 7.2595 0.121741 6.94566 0.250135C6.63181 0.37853 6.34645 0.567706 6.10598 0.806781C5.86551 1.04586 5.67468 1.33012 5.54446 1.64321C5.41424 1.9563 5.34721 2.29205 5.34722 2.63114V16.1311C5.34023 16.4724 5.40142 16.8116 5.52719 17.1289C5.65296 17.4461 5.84079 17.7351 6.07967 17.9789C6.31855 18.2227 6.60368 18.4163 6.91835 18.5485C7.23303 18.6807 7.57091 18.7487 7.91222 18.7486H21.6222C22.274 18.6991 22.8826 18.4033 23.3242 17.9213C23.7658 17.4393 24.0073 16.8073 23.9997 16.1536V2.65364C24.0027 2.31455 23.9386 1.97823 23.8111 1.66401C23.6836 1.34979 23.4953 1.06387 23.2569 0.822701C23.0185 0.581533 22.7348 0.389874 22.4221 0.258747C22.1094 0.12762 21.7738 0.0596131 21.4347 0.0586375ZM21.6447 14.0461C21.6262 14.1608 21.5647 14.2642 21.4728 14.3352C21.3809 14.4062 21.2654 14.4396 21.1497 14.4286H19.2747C19.1709 13.28 18.6413 12.2117 17.7898 11.4338C16.9384 10.6558 15.8268 10.2244 14.6735 10.2244C13.5202 10.2244 12.4085 10.6558 11.5571 11.4338C10.7057 12.2117 10.176 13.28 10.0722 14.4286H8.19722C8.08156 14.4396 7.96606 14.4062 7.87413 14.3352C7.7822 14.2642 7.72074 14.1608 7.70222 14.0461V2.79614C7.71901 2.68063 7.78003 2.57617 7.87238 2.50481C7.96474 2.43344 8.08121 2.40075 8.19722 2.41364H21.1497C21.2657 2.40075 21.3822 2.43344 21.4746 2.50481C21.5669 2.57617 21.6279 2.68063 21.6447 2.79614V14.0461Z" fill="#D9D9D9"/>
<path d="M4.57504 16.1546V5.09961L1.98754 5.69961C1.32539 5.85316 0.751251 6.26325 0.39125 6.83982C0.0312493 7.41638 -0.0851783 8.11226 0.0675416 8.77461L3.11254 21.9521C3.26609 22.6143 3.67618 23.1884 4.25275 23.5484C4.82931 23.9084 5.5252 24.0248 6.18754 23.8721L19.365 20.8271C19.7298 20.7443 20.072 20.5826 20.3674 20.3532C20.6629 20.1238 20.9044 19.8325 21.075 19.4996H7.91254C7.47362 19.4996 7.03901 19.413 6.6336 19.2448C6.22819 19.0766 5.85993 18.8301 5.54992 18.5194C5.2399 18.2087 4.99422 17.8399 4.82694 17.4341C4.65965 17.0283 4.57406 16.5935 4.57504 16.1546ZM14.6775 5.40711C14.2441 5.40562 13.8199 5.5328 13.4588 5.77254C13.0977 6.01228 12.8158 6.35379 12.6489 6.75382C12.482 7.15386 12.4376 7.59443 12.5212 8.01974C12.6049 8.44505 12.8128 8.83597 13.1188 9.143C13.4248 9.45003 13.815 9.65935 14.24 9.74446C14.6651 9.82958 15.1058 9.78665 15.5064 9.62111C15.907 9.45558 16.2495 9.17489 16.4904 8.81458C16.7314 8.45428 16.86 8.03057 16.86 7.59711C16.86 7.01758 16.6303 6.46168 16.2213 6.05119C15.8122 5.6407 15.2571 5.40909 14.6775 5.40711Z" fill="#D9D9D9"/>
</g>
<defs>
<clipPath id="clip0_4024_33352">
<rect width="24" height="24" fill="white"/>
</clipPath>
</defs>
</svg>
